<svg data-name="Layer 1" xmlns="http://www.w3.org/2000/svg" width="1243.4" height="323"><defs><linearGradient id="a" x1="219.273" y1="80.831" x2="51.209" y2="326.283" gradientTransform="matrix(1 0 0 -1 0 326)" gradientUnits="userSpaceOnUse"><stop offset="0" stop-color="#be0000"/><stop offset=".39" stop-color="#de0000"/><stop offset=".768" stop-color="#f60000"/><stop offset="1" stop-color="red"/></linearGradient><linearGradient id="b" x1="172.438" y1="192.113" x2="174.702" y2="217.994" gradientTransform="matrix(1 0 0 -1 0 326)" gradientUnits="userSpaceOnUse"><stop offset=".65" stop-color="#fff" stop-opacity="0"/><stop offset=".729" stop-color="#e0e0e0" stop-opacity=".262"/><stop offset=".815" stop-color="#c5c5c5" stop-opacity=".549"/><stop offset=".891" stop-color="#b5b5b5" stop-opacity=".805"/><stop offset=".95" stop-color="#afafaf"/></linearGradient><linearGradient id="c" x1="139.2" y1="123.794" x2="248.1" y2="123.794" gradientTransform="matrix(1 0 0 -1 0 326)" gradientUnits="userSpaceOnUse"><stop offset="0" stop-color="#fff" stop-opacity="0"/><stop offset=".084" stop-color="#f1f1f1" stop-opacity=".093"/><stop offset=".292" stop-color="#d4d4d4" stop-opacity=".325"/><stop offset=".499" stop-color="silver" stop-opacity=".555"/><stop offset=".703" stop-color="#b3b3b3" stop-opacity=".781"/><stop offset=".9" stop-color="#afafaf"/></linearGradient><linearGradient id="d" x1="3.1" y1="236.8" x2="124.9" y2="236.8" gradientTransform="matrix(1 0 0 -1 0 326)" gradientUnits="userSpaceOnUse"><stop offset=".25" stop-color="#fff" stop-opacity="0"/><stop offset=".462" stop-color="#ededed" stop-opacity=".282"/><stop offset=".886" stop-color="#bdbdbd" stop-opacity=".848"/><stop offset="1" stop-color="#afafaf"/></linearGradient></defs><path d="M93.6 245.5h251.8L143.6 42.9C116.7 16 80.2 0 42.2 0H0l3.1 8.3 14 36.7z" fill="url(#a)"/><path d="M17.1 44.9C44.7 92 117 97 124.9 170.2a6.684 6.684 0 0 0 5.6 5.9 248.815 248.815 0 0 1 117.6 52 1.135 1.135 0 0 0 .8.3 1.613 1.613 0 0 0 .9-.3 1.268 1.268 0 0 0 0-1.8 249.97 249.97 0 0 0-87.8-59.7l-10.2-4.1a13.899 13.899 0 0 1-8.7-13.3c.6-21.9 52.3-17.4 57.5-27.9l.9-1.8a98.28 98.28 0 0 0-37.2-19.8c-.1.5-.5 3.1 2.4 7.7 3.1 5-3.4 13-12.8 4.4l-.8-.7C83.2 46.9 30.8 80.1 3.1 8.3z" fill="#fff"/><path d="M185.2 118.2a21.682 21.682 0 0 1-18.5-10.9 5.43 5.43 0 0 1-4.9 8.2V133c7.5-2.2 16.1-3.5 23.4-5z" fill="url(#b)"/><path d="M139.2 177.6a247.722 247.722 0 0 1 108.9 50.5c-73.2-62.6-106.5-51.3-108.9-50.5z" fill="url(#c)"/><path d="M31.8 48.2c-11.4-8.1-21-20-28.7-40l14 36.7C44.7 92 117 97 124.9 170.2c-7.9-93.4-49-79.5-93.1-122z" fill="url(#d)"/><path d="M371 200.5c-49.8 0-81.4-25.9-81.4-58.4 0-33 33.5-58.4 82.8-58.4s82.8 25.5 82.8 57.1c0 14.2-6.3 25.7-18.3 35.5h29.3l-7 12c-4.4 7.6-9.9 12.2-21.6 12.2zm1.4-26.5c27.2 0 50.1-13.4 50.1-31.9s-22.9-31.9-50.1-31.9-50.1 13.4-50.1 31.9 22.9 31.9 50.1 31.9zM588.5 180.7h-78.4L499 200.5h-32.5l54.4-94.1c4.3-7.4 10.4-13.2 22.7-13.2h12.2c12.3 0 18.5 5.7 22.7 13.2l54.4 94.1h-33.2zm-65.1-23.6h51.8l-24-42.8c-.6-1-1-1.3-1.9-1.3s-1.3.3-1.9 1.3zM787.6 93.2v107.3h-29l-85.2-71.1v71.1h-29V93.2h18.2c9.3 0 14 2.4 19.3 7l76.8 63.9V93.2zM890.8 117.4v83.1h-29v-83.1h-59.5V93.2h148v24.2zM1047 180.7h-78.4l-11.2 19.7H925l54.4-94.1c4.3-7.4 10.4-13.2 22.7-13.2h12.2c12.3 0 18.5 5.7 22.7 13.2l54.4 94.1h-33.2zm-65.1-23.6h51.8l-24-42.8c-.6-1-1-1.3-1.9-1.3s-1.3.3-1.9 1.3zM1101.4 192.7l-2.7-.9 7.3-23.3c20.9 6.7 43.2 9.4 63.4 9.4 33 0 41.2-3.9 41.2-8 0-1.7-1.1-3-3.7-3.9-3.3-1.1-12.4-3-39.5-7.4-29.9-4.9-43.3-7.3-53.2-11.9s-15.9-11.9-15.9-22.6c0-8.2 4-14.7 10.4-19.9 11.4-8.9 31-12.4 52.3-12.4 27.5 0 50.5 2.3 76.1 8.6l2.3.7-6.2 22.7c-28.6-6.2-44.5-7.9-66.2-8.2-15.3-.1-25.9 1-31.5 2.7-3.1 1-4.4 2.4-4.4 4.1 0 1.6 1 3 4.1 4 3.4 1.1 9 2.4 38.3 7.2 31.8 5.1 42.2 7.3 50.9 10.7 11.9 4.6 19 13 19 23.6 0 13.3-10.3 23.2-28.2 28.6-11 3.3-25.7 5.1-42.3 5.1-25.9.3-53.7-3.1-71.5-8.9zM664.3 262.7v-1.5c0-6.1-4.4-10.8-12-10.8-7.5 0-11.8 3.8-11.8 9.1 0 4.2 3 7.3 7 8.8l10 4c7 2.8 14.8 6.4 14.8 16.8 0 10.7-8.1 17.6-19.9 17.6s-20-6.5-20-17v-1.5h7v1.8c0 6.2 4.7 10.7 12.9 10.7 8.3 0 13-4.6 13-10.8 0-6.5-4.7-9.1-10.4-11.3l-8.6-3.5c-6.9-2.7-12.5-7.1-12.5-15.2 0-9.1 7.4-15.5 18.6-15.5 11.1 0 18.9 6.5 18.9 17v1.1h-7zM688.5 266.2a14.508 14.508 0 0 1 12.4-6.2c9.8 0 15.7 6.5 15.7 16.6v13.5c0 10.1-5.9 16.6-15.7 16.6-5 0-9.1-1.9-11.8-5.4V323h-6.8v-62h5.2zm.6 11v12.7c0 6.3 4 11 10.7 11 6.6 0 10-4.5 10-10.4v-14.1c0-5.8-3.4-10.4-10-10.4-6.7 0-10.7 4.9-10.7 11.2zM730.4 243.9a4.375 4.375 0 0 1 4.4 4.4 4.292 4.292 0 0 1-4.4 4.3 4.378 4.378 0 0 1-4.5-4.3 4.46 4.46 0 0 1 4.5-4.4zm3.4 17.1v45H727v-45zM745.4 305.9v-45h5.2l1.1 5.7a13.95 13.95 0 0 1 12.1-6.6 16.352 16.352 0 0 1 2.2.2v6.4a20.025 20.025 0 0 0-2.8-.3c-6.5 0-11.1 4.5-11.1 11.2v28.3h-6.7zM777.7 243.9a4.375 4.375 0 0 1 4.4 4.4 4.292 4.292 0 0 1-4.4 4.3 4.378 4.378 0 0 1-4.5-4.3 4.46 4.46 0 0 1 4.5-4.4zm3.4 17.1v45h-6.8v-45zM789.5 261.2h8.7V249h6.9v12.2h8.7v5.7h-8.7v39h-6.9v-39h-8.7zM873 289.4c0 10.8-7.1 17.5-17.4 17.5s-17.3-6.7-17.3-17.5v-11.9c0-10.8 7-17.5 17.3-17.5s17.4 6.7 17.4 17.5zm-27.9.5c0 6.3 3.8 11.1 10.5 11.1s10.5-4.8 10.5-11.1V277c0-6.3-3.8-11.1-10.5-11.1s-10.5 4.8-10.5 11.1zM879.8 261.2h7.2V259c0-9.9 5.3-15.4 15.2-15.4h3.9v5.8h-3.5c-6.5 0-8.7 3.8-8.7 9.1v2.7h11.7v5.7h-11.7v39H887v-39h-7.2zM927 305.9l19.5-60.4h7.2l19.7 60.4H966l-4.5-13.9h-23.2l-4.4 13.9zm13.1-19.9h19.6l-9.9-31zM980.3 261h6.8v29.8c0 5.7 3.3 10.1 9.6 10.1 6.6 0 10.6-4.8 10.6-11V261h6.8v45h-5.2l-1-5.2a14.806 14.806 0 0 1-12.4 6.1c-9.7 0-15.1-6.3-15.1-16.1V261zM1029.7 292.1v1.6c0 4.5 3.9 7.8 10.6 7.8 6.3 0 9.7-3.1 9.7-7.5 0-3.7-1.8-5.5-6-6.8l-8.7-2.7c-5.3-1.6-10.5-4.8-10.5-11.8 0-6.8 6.2-12.6 15.3-12.6 9.6 0 16.2 4.9 16.2 13.2v.7h-6.4v-1.1c0-4.1-3.5-7.5-9.8-7.5-4.2 0-8.9 2.1-8.9 6.7 0 3 1.7 4.9 5.5 6l7.7 2.4c6.8 2.1 12.3 4.9 12.3 12.7 0 8.1-6.3 13.7-16.2 13.7s-17-5.2-17-13.6v-1.2zM1063.3 261.2h8.7V249h6.9v12.2h8.7v5.7h-8.7v39h-6.9v-39h-8.7zM1096.1 305.9v-45h5.2l1.1 5.7a13.95 13.95 0 0 1 12.1-6.6 16.35 16.35 0 0 1 2.2.2v6.4a20.023 20.023 0 0 0-2.8-.3c-6.5 0-11.1 4.5-11.1 11.2v28.3h-6.7zM1123.3 276.7c0-10.1 5.9-16.6 15.7-16.6a14.677 14.677 0 0 1 12.4 6.1l1-5.2h5.2v45h-5.2l-1-5.2a14.806 14.806 0 0 1-12.4 6.1c-9.8 0-15.7-6.5-15.7-16.6zm27.5 13.1v-12.7c0-6.3-4-11.1-10.7-11.1-6.6 0-10 4.6-10 10.4v14.1c0 5.9 3.4 10.4 10 10.4 6.7 0 10.7-4.8 10.7-11.1zM1176.2 243.7V306h-6.8v-62.3zM1191.4 243.9a4.375 4.375 0 0 1 4.4 4.4 4.292 4.292 0 0 1-4.4 4.3 4.378 4.378 0 0 1-4.5-4.3 4.46 4.46 0 0 1 4.5-4.4zm3.4 17.1v45h-6.8v-45zM1205.1 276.7c0-10.1 5.9-16.6 15.7-16.6a14.677 14.677 0 0 1 12.4 6.1l1-5.2h5.2v45h-5.2l-1-5.2a14.807 14.807 0 0 1-12.4 6.1c-9.8 0-15.7-6.5-15.7-16.6zm27.5 13.1v-12.7c0-6.3-4-11.1-10.7-11.1-6.6 0-10 4.6-10 10.4v14.1c0 5.9 3.4 10.4 10 10.4 6.7 0 10.7-4.8 10.7-11.1z" fill="#fff"/></svg>