<svg xmlns="http://www.w3.org/2000/svg" xmlns:xlink="http://www.w3.org/1999/xlink" viewBox="0 0 1430.44 170.08"><defs><style>.cls-6{fill:#fff}.cls-7{fill:none;stroke:#fff;stroke-miterlimit:10;stroke-width:2px}</style><linearGradient id="linear-gradient" x1="2658.39" y1="863.64" x2="2700.94" y2="863.64" gradientTransform="translate(-2456.74 -812.02)" gradientUnits="userSpaceOnUse"><stop offset="0" stop-color="#b3b3b3"/><stop offset=".05" stop-color="#ccc"/><stop offset=".38" stop-color="#ccc"/><stop offset="1" stop-color="#fff"/></linearGradient><linearGradient id="linear-gradient-2" x1="2690.76" y1="881.2" x2="2647.97" y2="881.2" gradientTransform="translate(-2456.74 -812.02)" gradientUnits="userSpaceOnUse"><stop offset="0" stop-color="#fff"/><stop offset=".62" stop-color="#999"/><stop offset="1" stop-color="#404040"/></linearGradient><linearGradient id="linear-gradient-3" x1="2649.79" y1="848.84" x2="2710.41" y2="848.84" xlink:href="#linear-gradient-2"/><linearGradient id="linear-gradient-4" x1="2657.05" y1="859.63" x2="2708.84" y2="859.63" gradientTransform="translate(-2456.74 -812.02)" gradientUnits="userSpaceOnUse"><stop offset="0" stop-color="#b3b3b3"/><stop offset=".05" stop-color="#ccc"/><stop offset=".38" stop-color="#ccc"/><stop offset="1" stop-color="#666"/></linearGradient><linearGradient id="linear-gradient-5" x1="2649.9" y1="862.93" x2="2711.03" y2="862.93" xlink:href="#linear-gradient-2"/></defs><g id="Qantas_SOA_Type" data-name="Qantas / SOA Type"><path d="M202.32 32.5c1.2-6 8.4-5.29 8.4-5.29C219 28 226.48 37.66 230.5 44c6.25 9.82 10.44 21.49 10.68 33.23 0 .22.17.25.33.17l.81-.58c.32-.24.65-.5 1-.76l.67-.57a1 1 0 0 0 .24-.69C243.87 62.09 240 49.35 232 39.32c-3.94-5-11.11-11.88-18.32-13.28s-8-1.83-12.06 5.05l.67 1.41" fill="url(#linear-gradient)"/><path d="M193.17 56.05a30.92 30.92 0 0 0 42.58 24.51c.45-.2.43-.33.19-.41-19.09.37-35.88-11.61-42.59-24.68-.2-.19-.23.18-.18.58z" fill="url(#linear-gradient-2)"/><path d="M253.62 44l-.09-.34c-.17-.56-.77-2.11-1.21-3.08-9.35-19.23-33.54-20.72-48.38-9.44l-.07.06a31.26 31.26 0 0 0-6.36 6.36 24.48 24.48 0 0 0-4.14 9.12 9 9 0 0 0-.3 2.55c0 .14.05.22.13.25s.63-.16 1-.35 1.09-.55 1.82-.89a40.89 40.89 0 0 1 7.73-2.42c-.15-.23-.34-.46-.5-.7a18.73 18.73 0 0 1-2.46-5.47 32.7 32.7 0 0 0-5.53 4.52c7.48-17 41.3-28.36 58.1.15.16.27.34.27.34 0a1.49 1.49 0 0 0-.08-.32z" fill="url(#linear-gradient-3)"/><path d="M221 53.7c-5.07-2.91-10.42-5.94-14.35-10.35-2.71-3-4.94-7.21-4.31-11.28a6.63 6.63 0 0 1 4.1-4.42 13.38 13.38 0 0 0-3.42 1.65l-.51.49c-3.58 4.45-2.47 10.67.68 15.38 3.73 5.6 10.17 10.12 15.94 13.38a76.61 76.61 0 0 0 19.69 7.8 53.53 53.53 0 0 0 9.46 1.16c.48 0 1 0 1.47.07a1.17 1.17 0 0 0 1-.53c.14-.25.4-.75.4-.75.1-.19.71-1.45.89-1.85C241.07 64 230.47 59.11 221 53.7z" fill="url(#linear-gradient-4)"/><path d="M254.68 51.81a5.89 5.89 0 0 0-1.48-3c-10.47-11.66-32.89-19.47-49.87-10.63a19.52 19.52 0 0 0 3.34 5.14 24.82 24.82 0 0 0 1.77 1.78c16.23-1.76 35.94 4.19 42 22.27a1 1 0 0 0 .39-.39 30.73 30.73 0 0 0 3.86-14.92c0-.06-.01-.16-.01-.25z" fill="url(#linear-gradient-5)"/><path class="cls-6" d="M421.44 49.72a62.32 62.32 0 0 0-43.83-18.53h-18.26l1.36 3.56c12 31.09 34.63 16.73 64.85 44.42l.34.31c4.07 3.73 6.86.27 5.53-1.9-1.23-2-1.08-3.1-1-3.33a41.9 41.9 0 0 1 16.1 8.55l-.39.79c-2.26 4.54-24.63 2.62-24.88 12.08a6 6 0 0 0 3.78 5.75l4.41 1.77a108.3 108.3 0 0 1 38 25.81.54.54 0 0 1 0 .77.53.53 0 0 1-.37.15.5.5 0 0 1-.34-.12 107.63 107.63 0 0 0-50.84-22.47 2.9 2.9 0 0 1-2.43-2.55C410 73.12 378.68 71 366.76 50.61l33.05 86.73h108.88zM519.74 117.86c-21.52 0-35.19-11.2-35.19-25.23 0-14.29 14.47-25.24 35.81-25.24s35.81 11 35.81 24.68c0 6.12-2.73 11.13-7.92 15.34h12.68l-3 5.19c-1.92 3.28-4.27 5.26-9.34 5.26zm.62-11.44c11.75 0 21.64-5.82 21.64-13.79s-9.89-13.8-21.64-13.8-21.65 5.82-21.65 13.8 9.9 13.79 21.65 13.79zM613.8 109.32h-33.89l-4.83 8.54h-14l23.5-40.7c1.85-3.21 4.51-5.68 9.83-5.68h5.25c5.32 0 8 2.47 9.84 5.68l23.5 40.7h-14.38zm-28.14-10.2h22.39l-10.39-18.49c-.25-.44-.44-.56-.81-.56s-.55.12-.8.56zM699.88 71.48v46.38h-12.56l-36.86-30.74v30.74h-12.55V71.48h7.85a11.11 11.11 0 0 1 8.35 3l33.21 27.64V71.48zM744.52 81.93v35.93H732V81.93h-25.76V71.48h64v10.45zM812.05 109.32h-33.89l-4.82 8.54h-14l23.5-40.7c1.85-3.21 4.51-5.68 9.83-5.68h5.26c5.32 0 8 2.47 9.83 5.68l23.5 40.7h-14.39zm-28.14-10.2h22.39l-10.39-18.49c-.25-.44-.43-.56-.8-.56s-.56.12-.81.56zM835.55 114.52l-1.18-.37 3.15-10.08a91.12 91.12 0 0 0 27.4 4.08c14.29 0 17.81-1.67 17.81-3.47 0-.74-.49-1.29-1.61-1.67-1.42-.49-5.38-1.29-17.07-3.21-12.92-2.1-18.73-3.15-23-5.13s-6.87-5.14-6.87-9.77c0-3.53 1.74-6.37 4.52-8.6 4.95-3.84 13.42-5.38 22.63-5.38a131.3 131.3 0 0 1 32.9 3.71l1 .31-2.66 9.83c-12.36-2.66-19.23-3.4-28.63-3.52-6.62-.07-11.19.43-13.6 1.17-1.36.43-1.92 1-1.92 1.79s.43 1.3 1.79 1.74 3.9 1 16.58 3.09c13.72 2.22 18.24 3.15 22 4.64 5.13 2 8.23 5.62 8.23 10.2 0 5.75-4.46 10-12.19 12.37a66.38 66.38 0 0 1-18.3 2.23c-11.26 0-23.25-1.48-30.98-3.96z"/><path class="cls-7" d="M968.66 31.62v108.43M316.35 31.62v108.43"/><path class="cls-6" d="M1049.3 41.26a41.77 41.77 0 1 0 41.7 41.85 41.76 41.76 0 0 0-41.7-41.85zm-.15 77.13a35.37 35.37 0 1 1 35.44-35.3 35.37 35.37 0 0 1-35.44 35.3zm29.59-37.55a.94.94 0 0 1 1 1v1.34c0 9.52-6.85 16.61-16.29 16.59-9.25 0-16-7.13-16-16.74s6.77-16.69 16.11-16.67a16.1 16.1 0 0 1 12.11 5 1 1 0 0 1 0 1.35l-2.7 3a.85.85 0 0 1-1.35 0 10.56 10.56 0 0 0-8.16-3.52c-5.75 0-9.89 4.57-9.9 10.94s4.11 11 9.86 11c5.12 0 8.71-2.68 10-7.44h-9.79a.94.94 0 0 1-1-.9v-4a.94.94 0 0 1 1-1h15.09m-55.51 8a.85.85 0 0 1 1.35.1 11.11 11.11 0 0 0 9.42 5c3.59 0 5.75-1.42 5.76-3.67 0-2-1.34-3.14-4.76-4.14l-5.38-1.54c-5.12-1.44-8.17-4.86-8.16-9 0-5.48 5-9.33 11.88-9.32a14.33 14.33 0 0 1 11.14 4.78 1 1 0 0 1 0 1.35l-2.79 2.87a.77.77 0 0 1-1.35 0 9.21 9.21 0 0 0-7-3.42c-3.68 0-6 1.51-6 3.76 0 1.79 1.43 3 5 4l5.75 1.63c5.2 1.44 7.71 4.32 7.7 9.08 0 5.66-5 9.43-12.14 9.41-5.39 0-9.52-2-13.28-6.49a.87.87 0 0 1 0-1.26l2.88-3.14m329.15-17.22c4.57 0 8.64 2.56 9.51 8.28h-19.16c1.14-5.35 4.94-8.28 9.65-8.28m15.31 8.64c-.82-8.45-7.13-13.94-15.31-13.94-9.1 0-15.64 7.5-15.64 16.73 0 9.7 6.81 16.74 16.09 16.74a17.15 17.15 0 0 0 13.45-6.49.66.66 0 0 0 0-1l-2.65-2.93a.6.6 0 0 0-1 0c-3.25 3.43-5.72 5.08-9.69 5.08-5.13 0-9.61-3.62-10.48-9.47h24.65a.68.68 0 0 0 .73-.69 39.63 39.63 0 0 0-.14-4.07m-46.5 18.11v-14c0-7.17 4.07-12.34 9.83-12.34a11.88 11.88 0 0 1 3.25.36.8.8 0 0 0 1.1-.77v-4.42a.7.7 0 0 0-.64-.64 12.83 12.83 0 0 0-2.34-.18c-5.16 0-8.87 2.15-11.2 6.35v-4.93a.7.7 0 0 0-.68-.69h-4.21a.7.7 0 0 0-.69.69v30.63a.7.7 0 0 0 .69.69h4.21a.7.7 0 0 0 .68-.69M1295 71.59c6.49 0 10.65 5.08 10.65 11.43s-4.16 11.44-10.65 11.44-10.66-5.08-10.66-11.44 4.16-11.43 10.66-11.43m0 28.17c9.69 0 16.23-7.5 16.23-16.74s-6.54-16.73-16.23-16.73-16.24 7.5-16.24 16.73 6.54 16.74 16.24 16.74m-32.47-16.83h-8.73V72.32h8.73c5 0 7 1.47 7 5.31s-2 5.3-7 5.3m.64-15.91h-14.26a.7.7 0 0 0-.69.69v30.63a.7.7 0 0 0 .69.69h4.2a.7.7 0 0 0 .69-.69v-10.1h9.37c6.54 0 12-3.16 12-10.61s-5.44-10.61-12-10.61m-35.53 27.44c-2.92 0-5.62-1.24-5.62-4.35 0-2.93 2.29-4.62 7.27-4.62h7.68c0 5.49-3.93 9-9.33 9m2.15-28.17a14.81 14.81 0 0 0-11.47 5.12.7.7 0 0 0 0 1l2.83 3a.57.57 0 0 0 1 0 10.28 10.28 0 0 1 7.73-3.75c5 0 7.13 2.66 7.13 7v1.92h-8.5c-6.63 0-12 3.43-12 9.83 0 6.59 5.4 9.47 10.52 9.47 4.53 0 8.23-1.83 10-5.4v4a.7.7 0 0 0 .69.69h4.21a.7.7 0 0 0 .68-.69V78.27c0-8.32-4.57-12-12.76-12M1212.32 81h-15.41a.65.65 0 0 0-.68.69v3.93a.65.65 0 0 0 .68.69h10.38c-1.19 4.84-4.8 8.14-10.51 8.14-6.27 0-10.43-5-10.43-11.44s4.16-11.43 10.43-11.43a10.72 10.72 0 0 1 8.55 3.66.57.57 0 0 0 1 0l2.7-3.06a.67.67 0 0 0 0-1 16.4 16.4 0 0 0-12.12-4.94c-9.83 0-16.1 7.5-16.1 16.73s6.31 16.74 16 16.74c9.46 0 16.23-7.13 16.23-16.69V81.7a.66.66 0 0 0-.69-.69m-47.46-14.72c-5.81-.05-9 2.7-10.65 5.53v-4.11a.7.7 0 0 0-.69-.69h-4.2a.7.7 0 0 0-.69.69v30.63a.7.7 0 0 0 .69.69h4.2a.7.7 0 0 0 .69-.69V82.16c0-6 3.34-10.57 9.19-10.57 5.07 0 7.36 3.34 7.36 8.83v17.92a.7.7 0 0 0 .69.69h4.2a.7.7 0 0 0 .69-.69V80c0-8.87-4.16-13.63-11.48-13.67m-27.48 1.42v30.59a.7.7 0 0 0 .69.69h4.2a.7.7 0 0 0 .69-.69V67.71a.7.7 0 0 0-.69-.69h-4.2a.7.7 0 0 0-.69.69m-27.14 21.49l-2.93 3.15a.66.66 0 0 0 0 1c3.15 3.66 7.08 6.45 13.39 6.45 7.18 0 12.12-3.75 12.12-9.37 0-4.58-2.42-7.41-7.77-8.92l-5.76-1.65c-3.8-1.09-5.35-2.37-5.35-4.39 0-2.47 2.51-4.11 6.4-4.11a9.68 9.68 0 0 1 7.36 3.61.6.6 0 0 0 1 0l2.83-3a.62.62 0 0 0 0-1 14.35 14.35 0 0 0-11.15-4.66c-6.5 0-11.8 3.47-11.8 9.28 0 3.8 2.65 7.27 8.14 8.83l5.49 1.55c4 1.14 5.07 2.65 5.07 4.48 0 2.7-2.65 4-6.22 4-4.66 0-7.59-2.25-9.78-5.22a.56.56 0 0 0-1 0M1193.21 116.44v7.79h-3.34v-7a2.34 2.34 0 0 0-2.32-2.56A2.44 2.44 0 0 0 1185 117v-.07 7.31h-3.45V112h3.45v1.54a4.38 4.38 0 0 1 3.7-1.82 4.46 4.46 0 0 1 4.51 4.72zm-14 1.63a6.68 6.68 0 1 1-6.64-6.4 6.61 6.61 0 0 1 6.68 6.4zm-3.29 0a3.37 3.37 0 1 0-3.37 3.49 3.46 3.46 0 0 0 3.45-3.49zm35.52-.88l-5-9.19H1203v16.26h3.48v-10.12l5 9.19 5-9.18v10.13h3.52v-16.26h-3.51zm52.81 2.18h-8.82a3 3 0 0 0 2.9 2.23 4.37 4.37 0 0 0 2.82-1.08l2.2 2.25a7.47 7.47 0 0 1-5 1.89 6.3 6.3 0 0 1-6.47-6.45 6.17 6.17 0 0 1 6.31-6.36c3.87-.01 6.11 2.91 6.1 7.52zm-3.31-2.49a2.53 2.53 0 0 0-2.62-2 3 3 0 0 0-2.84 2zm-26.9.11v7.32h-3.33v-1.23a4.88 4.88 0 0 1-3.6 1.51c-2.6 0-4.61-1.57-4.61-3.92s2.26-4.06 5.1-4.06a9.11 9.11 0 0 1 3.12.62V117c0-1.3-.8-2.44-2.81-2.45a7.09 7.09 0 0 0-3.17.87l-1.16-2.29a11.06 11.06 0 0 1 5.12-1.34c3.21-.01 5.38 2.01 5.38 5.21zm-3.34 2.32a7.6 7.6 0 0 0-2.63-.46c-1.25 0-2.25.73-2.25 1.73s.87 1.61 2.06 1.61a2.67 2.67 0 0 0 2.82-1.75zm15.4-11.52h3.46v16.55h-3.45v-1.75a5 5 0 0 1-4.12 2c-3.26 0-5.63-2.66-5.62-6.42s2.38-6.38 5.65-6.38a5.05 5.05 0 0 1 4.11 2zm0 10.41a3.18 3.18 0 0 0-3.12-3.48 3.5 3.5 0 0 0 0 7 3.2 3.2 0 0 0 3.14-3.52zm-84.22-11.69a1.89 1.89 0 0 0-1.89 1.85 1.87 1.87 0 1 0 1.89-1.85zm-28.41 10.29v7.31h-3.34v-1.23a4.85 4.85 0 0 1-3.6 1.5c-2.61 0-4.61-1.57-4.61-3.91s2.26-4.06 5.1-4.06a8.88 8.88 0 0 1 3.12.62v-.24c0-1.3-.8-2.43-2.81-2.44a7.06 7.06 0 0 0-3.17.87l-1.16-2.3a11.3 11.3 0 0 1 5.11-1.34c3.21.01 5.38 2.03 5.38 5.22zm-3.35 2.31a7.78 7.78 0 0 0-2.62-.45c-1.26 0-2.25.73-2.25 1.72s.87 1.61 2 1.62a2.66 2.66 0 0 0 2.82-1.75zm11.37-2.58c-1.66-.45-2.15-.64-2.15-1.3 0-.43.59-.74 1.44-.73a6.88 6.88 0 0 1 3.43 1.09l1.4-2.46a8.85 8.85 0 0 0-4.82-1.52c-2.89 0-4.81 1.65-4.79 4s2 3.1 4.47 3.72c1.25.33 2.15.57 2.15 1.33 0 .54-.67.92-1.59.92a7 7 0 0 1-4.09-1.38l-1.5 2.39a9.07 9.07 0 0 0 5.51 1.85c3 0 5-1.53 5-3.94.05-2.7-2.34-3.42-4.44-3.97zm11.88 0c-1.66-.46-2.15-.65-2.15-1.31 0-.43.59-.73 1.44-.73a7 7 0 0 1 3.43 1.09l1.4-2.45a8.89 8.89 0 0 0-4.82-1.53c-2.89 0-4.81 1.65-4.79 4s2 3.1 4.46 3.72c1.26.34 2.16.57 2.16 1.33 0 .55-.67.92-1.59.92a7 7 0 0 1-4.09-1.38l-1.5 2.39a9.07 9.07 0 0 0 5.51 1.85c3 0 5-1.52 5-3.94 0-2.67-2.34-3.39-4.44-3.93zm6.73 7.6h3.45V111.9h-3.46zm-39.55-10.84c0 3.22-2.61 5.49-6.14 5.48h-3.83v5.28h-3.48V107.8h7.31c3.59.03 6.17 2.3 6.16 5.52zm-3.59 0c0-1.39-1.18-2.29-2.91-2.3h-3.46v4.59h3.45c1.75.03 2.96-.87 2.96-2.27zm192 3.54c-1.65-.45-2.15-.64-2.15-1.3 0-.43.6-.73 1.45-.73a6.88 6.88 0 0 1 3.43 1.09l1.4-2.46a8.91 8.91 0 0 0-4.83-1.52c-2.88 0-4.8 1.65-4.78 4s2 3.1 4.46 3.72c1.25.33 2.15.57 2.15 1.33 0 .54-.66.92-1.59.92a7 7 0 0 1-4.09-1.38l-1.49 2.39a9 9 0 0 0 5.51 1.85c3 0 5-1.53 5-3.94-.01-2.68-2.35-3.4-4.43-3.95zm38.26 1.54c0 3.77-2.37 6.41-5.64 6.41a5 5 0 0 1-4.09-2v1.72H1334v-16.54h3.46v6a5 5 0 0 1 4.1-2c3.32.04 5.68 2.7 5.67 6.43zm-3.36 0a3.24 3.24 0 0 0-3.25-3.49 3.13 3.13 0 0 0-3.11 3v.95a3.11 3.11 0 0 0 3.09 3 3.23 3.23 0 0 0 3.28-3.44zm-16.29 6.1h3.43v-12.23h-3.45zm1.79-17.65a1.87 1.87 0 1 0 1.84 1.84 1.88 1.88 0 0 0-1.83-1.82zm20.29 17.69h3.45v-16.54h-3.46zm15.06-3.83l2.19 2.25a7.44 7.44 0 0 1-5 1.89 6.29 6.29 0 0 1-6.47-6.45 6.16 6.16 0 0 1 6.3-6.36c3.84 0 6.08 2.93 6.07 7.54h-8.83a3 3 0 0 0 2.91 2.23 4.44 4.44 0 0 0 2.84-1.08zm-5.67-3.63h5.46a2.55 2.55 0 0 0-2.62-2 2.94 2.94 0 0 0-2.83 2.02zm-38.2-.19c-1.65-.46-2.15-.65-2.15-1.31 0-.43.59-.73 1.45-.73a7 7 0 0 1 3.43 1.09l1.4-2.45a9 9 0 0 0-4.83-1.53c-2.88 0-4.8 1.65-4.79 4s2 3.1 4.47 3.72c1.25.34 2.15.57 2.15 1.33 0 .55-.66.92-1.59.92a7 7 0 0 1-4.09-1.38l-1.49 2.39a9 9 0 0 0 5.51 1.86c3 0 5-1.53 5-4-.01-2.63-2.31-3.35-4.46-3.89zm-19.33 1.43a6.68 6.68 0 1 1-6.64-6.41 6.61 6.61 0 0 1 6.65 6.43zm-3.29 0a3.38 3.38 0 1 0-6.75 0 3.38 3.38 0 1 0 6.75 0zm-11.45-4.66c0 3.22-2.61 5.49-6.14 5.48h-3.83v5.28h-3.48v-16.26h7.32c3.55.02 6.15 2.29 6.14 5.51zm-3.59 0c0-1.39-1.18-2.29-2.91-2.3h-3.45v4.59h3.45c1.73.01 2.91-.92 2.92-2.29zM56.65 138.87a12.86 12.86 0 0 0 .16 2.25h-1.56l-.13-1.18h-.06a3.5 3.5 0 0 1-2.86 1.39 2.66 2.66 0 0 1-2.86-2.69c0-2.26 2-3.5 5.62-3.48V135a1.92 1.92 0 0 0-2.12-2.16 4.7 4.7 0 0 0-2.44.69l-.4-1.16a5.82 5.82 0 0 1 3.08-.83c2.86 0 3.56 2 3.56 3.83zM55 136.34c-1.86 0-4 .29-4 2.11a1.5 1.5 0 0 0 1.6 1.62 2.32 2.32 0 0 0 2.26-1.56A1.77 1.77 0 0 0 55 138zM61.14 129.12a1.06 1.06 0 0 1-2.11 0 1 1 0 0 1 1.06-1.07 1 1 0 0 1 1.05 1.07zm-1.9 12v-9.37h1.7v9.37zM64 134.67c0-1.1 0-2-.08-2.92h1.48l.06 1.84h.07a2.81 2.81 0 0 1 2.6-2.05 1.75 1.75 0 0 1 .48.06v1.6a2.46 2.46 0 0 0-.58-.06 2.39 2.39 0 0 0-2.28 2.19 4.7 4.7 0 0 0-.08.8v5H64zM70.52 134.81c0-1.2 0-2.17-.08-3.06H72l.08 1.61a3.68 3.68 0 0 1 3.34-1.82c2.26 0 4 1.91 4 4.76 0 3.36-2 5-4.26 5a3.27 3.27 0 0 1-2.88-1.47V145h-1.76zm1.69 2.5a3.66 3.66 0 0 0 .07.69 2.64 2.64 0 0 0 2.55 2c1.8 0 2.85-1.47 2.85-3.62 0-1.88-1-3.49-2.78-3.49a2.71 2.71 0 0 0-2.58 2.11 2.62 2.62 0 0 0-.11.69zM89.8 136.36a4.57 4.57 0 0 1-4.66 5c-2.54 0-4.49-1.85-4.49-4.82 0-3.13 2-5 4.64-5s4.51 1.95 4.51 4.82zm-7.42.1c0 2 1.18 3.59 2.83 3.59s2.85-1.52 2.85-3.64c0-1.58-.79-3.59-2.8-3.59s-2.88 1.85-2.88 3.64zM91.67 134.67c0-1.1 0-2-.08-2.92h1.49l.06 1.84h.08a2.8 2.8 0 0 1 2.59-2.05 1.83 1.83 0 0 1 .49.06v1.6a2.55 2.55 0 0 0-.59-.06 2.39 2.39 0 0 0-2.28 2.19 4.76 4.76 0 0 0-.07.8v5h-1.69zM101 129.5v2.25h2.44v1.3H101v5c0 1.16.34 1.82 1.28 1.82a3.07 3.07 0 0 0 1-.12l.07 1.28a4.12 4.12 0 0 1-1.5.25 2.35 2.35 0 0 1-1.84-.74 3.46 3.46 0 0 1-.66-2.43V133h-1.49v-1.3h1.45V130zM242.93 91.05a37.1 37.1 0 0 1-5.54 3.35.87.87 0 0 0-.44.81v24.65h6.85v-28.2c.01-1.42-.87-.61-.87-.61zM74.79 107.33l-.2.33c-3 4.81-6.23 6.87-10.78 6.88-6.39 0-10.94-4.38-11-10.44s4.57-10.49 11-10.5c4.27 0 7.55 1.93 9.91 5.82l.19.32L79.66 96l-.22-.31a18.54 18.54 0 0 0-15.63-8.09c-10.31.06-17.81 6.97-17.87 16.5s7.56 16.38 17.87 16.4a18.19 18.19 0 0 0 16.24-9.18l.17-.3zM108.33 88.28V99.7H92.42v-.05l.01-11.37h-6.87v31.47h6.86v-14.14h15.91v14.14h6.79V88.28h-6.79zM156.11 119.22l-16-30.93h-4.92l-16.11 31.46h7.1l4-7.75h15l4.09 7.75h7.11zm-18.46-21.79l4.44 8.46v.08h-8.89v-.08l4.38-8.46zM183.02 88.29v19.41l-.08-.09-18.51-19.32h-4.11v31.45h6.8v-19.41l.09.09 18.55 19.32h4.06V88.29h-6.8zM214.29 108.1H223v2.12a10.68 10.68 0 0 1-9 4.31c-6.39 0-10.95-4.38-11-10.44s4.57-10.49 11-10.5c4.26 0 7.54 1.93 9.91 5.82l.19.32 5.7-3.73-.23-.31A18.51 18.51 0 0 0 214 87.64c-10.31 0-17.86 6.93-17.87 16.46s7.56 16.38 17.87 16.4a17.91 17.91 0 0 0 15.75-8.29l.06-.09v-9.92h-15.52zM109.41 139.6a5.08 5.08 0 0 0 2.33.67c1.26 0 1.86-.61 1.86-1.43s-.5-1.3-1.78-1.78c-1.75-.63-2.57-1.57-2.57-2.73 0-1.55 1.28-2.83 3.33-2.83a4.43 4.43 0 0 1 2.35.6l-.41 1.26a4 4 0 0 0-2-.56c-1 0-1.59.6-1.59 1.31s.55 1.18 1.81 1.66c1.66.62 2.53 1.45 2.53 2.91 0 1.71-1.33 2.91-3.59 2.91a5.51 5.51 0 0 1-2.71-.68zM118.22 130a1.13 1.13 0 1 1 1.16-1.14 1.1 1.1 0 0 1-1.14 1.14zm-.84 11.42v-9.65h1.76v9.65zM121.89 134.33c0-1 0-1.81-.08-2.61h1.55l.1 1.58a3.58 3.58 0 0 1 3.19-1.8c1.34 0 3.41.8 3.41 4.11v5.76h-1.75v-5.56c0-1.56-.58-2.87-2.23-2.87a2.54 2.54 0 0 0-2.36 1.79 2.62 2.62 0 0 0-.12.82v5.82h-1.75zM141.05 140c0 2.24-.46 3.57-1.38 4.43a5.29 5.29 0 0 1-3.53 1.16 6.21 6.21 0 0 1-3.21-.8l.44-1.36a5.23 5.23 0 0 0 2.83.78c1.8 0 3.11-.94 3.11-3.39v-1.05a3.43 3.43 0 0 1-3.07 1.61c-2.39 0-4.11-2-4.11-4.72 0-3.27 2.14-5.11 4.37-5.11a3.23 3.23 0 0 1 3 1.66l.06-1.44h1.56c-.06.68-.08 1.46-.08 2.63zm-1.76-4.44a2.46 2.46 0 0 0-.1-.78 2.51 2.51 0 0 0-2.45-1.87c-1.68 0-2.87 1.41-2.87 3.67 0 1.87 1 3.46 2.85 3.46a2.51 2.51 0 0 0 2.43-1.81 2.89 2.89 0 0 0 .14-.94zM150.57 139.06a16.1 16.1 0 0 0 .14 2.31h-1.57l-.16-1.22h-.06a3.57 3.57 0 0 1-2.95 1.44 2.75 2.75 0 0 1-2.95-2.77c0-2.33 2.07-3.61 5.8-3.59V135a2 2 0 0 0-2.19-2.23 4.66 4.66 0 0 0-2.54.72l-.4-1.18a6.26 6.26 0 0 1 3.19-.84c3 0 3.69 2 3.69 3.95zm-1.71-2.61c-1.92 0-4.09.3-4.09 2.17a1.53 1.53 0 0 0 1.64 1.67 2.43 2.43 0 0 0 2.37-1.61 1.81 1.81 0 0 0 .08-.56zM153.22 134.87c0-1.23 0-2.23-.08-3.15h1.58l.1 1.66a3.71 3.71 0 0 1 3.41-1.88c2.35 0 4.1 2 4.1 4.91 0 3.47-2.13 5.18-4.38 5.18a3.36 3.36 0 0 1-3-1.51v5.24h-1.76zm1.76 2.57a2.84 2.84 0 0 0 .08.72 2.67 2.67 0 0 0 2.61 2.05c1.85 0 2.93-1.51 2.93-3.72 0-1.94-1-3.59-2.85-3.59a2.79 2.79 0 0 0-2.67 2.15 4.78 4.78 0 0 0-.1.72zM168.35 141.59c-2.59 0-4.63-1.91-4.63-5 0-3.22 2.14-5.12 4.79-5.12s4.65 2 4.65 4.95c0 3.58-2.5 5.14-4.79 5.14zm.06-1.32c1.68 0 2.93-1.57 2.93-3.76 0-1.64-.82-3.69-2.89-3.69s-2.95 1.91-2.95 3.74c0 2.12 1.2 3.71 2.89 3.71zM175.23 134.73c0-1.14 0-2.11-.08-3h1.53l.08 1.9h.06a2.93 2.93 0 0 1 2.69-2.12 1.86 1.86 0 0 1 .48.06v1.64a5.7 5.7 0 0 0-.62 0 2.46 2.46 0 0 0-2.35 2.23 5.53 5.53 0 0 0-.06.84v5.14h-1.75zM182.44 136.85a3.08 3.08 0 0 0 3.29 3.34 6.88 6.88 0 0 0 2.68-.47l.31 1.23a7.77 7.77 0 0 1-3.22.62 4.5 4.5 0 0 1-4.75-4.86c0-2.94 1.74-5.23 4.55-5.23 3.15 0 4 2.77 4 4.55a4.53 4.53 0 0 1-.06.84zm5.13-1.26c0-1.1-.46-2.85-2.41-2.85a2.88 2.88 0 0 0-2.69 2.85z"/></g></svg>