<svg data-name="Layer 1" xmlns="http://www.w3.org/2000/svg" width="280.016" height="65.222"><path d="M32.51 0a32.45 32.45 0 1 0 32.391 32.51A32.45 32.45 0 0 0 32.511 0zm-.11 59.931a27.48 27.48 0 1 1 27.531-27.43 27.48 27.48 0 0 1-27.53 27.43zm23.001-29.18a.73.73 0 0 1 .76.698.716.716 0 0 1 0 .072v1.05c0 7.39-5.33 12.9-12.66 12.88s-12.41-5.54-12.39-13 5.26-13 12.51-13a12.55 12.55 0 0 1 9.38 3.9.75.75 0 0 1 0 1l-2.1 2.3a.66.66 0 0 1-1 0 8.17 8.17 0 0 0-6.36-2.65c-4.47 0-7.69 3.54-7.7 8.5s3.16 8.5 7.66 8.5c4 0 6.78-2.08 7.76-5.77h-7.61a.71.71 0 0 1-.758-.658l-.001-.042v-3a.73.73 0 0 1 .698-.76.717.717 0 0 1 .072 0h11.73M12.26 37a.66.66 0 0 1 1.05.07 8.61 8.61 0 0 0 7.32 3.92c2.79 0 4.46-1.11 4.47-2.85 0-1.54-1-2.45-3.7-3.22l-4.18-1.19c-4-1.13-6.34-3.78-6.34-7 0-4.26 3.85-7.25 9.23-7.24a11.09 11.09 0 0 1 8.64 3.64.76.76 0 0 1 0 1.05l-2.16 2.23a.6.6 0 0 1-1.05 0 7.21 7.21 0 0 0-5.44-2.71c-2.86 0-4.68 1.18-4.68 2.92 0 1.4 1.11 2.38 3.9 3.15L23.78 31c4 1.12 6 3.36 6 7.06 0 4.39-3.85 7.32-9.43 7.31-4.19 0-7.4-1.55-10.32-5a.67.67 0 0 1-.054-.946.688.688 0 0 1 .054-.054L12.26 37m255.746-13.43a7.07 7.07 0 0 1 7.38 6.43h-14.88c.88-4.16 3.83-6.43 7.49-6.43m11.9 6.71a11.54 11.54 0 0 0-11.89-10.83c-7.07 0-12.15 5.82-12.15 13 0 7.53 5.3 13 12.51 13a13.29 13.29 0 0 0 10.44-5 .52.52 0 0 0 .014-.735l-.014-.015-2.06-2.27a.47.47 0 0 0-.75 0c-2.52 2.66-4.44 3.94-7.53 3.94a8.22 8.22 0 0 1-8.18-7.37h19.15a.54.54 0 0 0 .569-.51v-.03a30.327 30.327 0 0 0-.11-3.16m-36.13 14.05V33.44c0-5.57 3.16-9.59 7.64-9.59a8.761 8.761 0 0 1 2.52.29.63.63 0 0 0 .86-.61v-3.44a.54.54 0 0 0-.5-.5 9.826 9.826 0 0 0-1.81-.14 9.24 9.24 0 0 0-8.71 4.93v-3.83a.55.55 0 0 0-.53-.54h-3.23a.55.55 0 0 0-.53.54v23.8a.55.55 0 0 0 .53.53h3.27a.55.55 0 0 0 .53-.53m-20.43-20.78c5 0 8.28 3.94 8.28 8.88s-3.23 8.88-8.28 8.88-8.28-3.94-8.28-8.88 3.24-8.88 8.28-8.88m0 21.88c7.53 0 12.61-5.82 12.61-13s-5.08-13-12.61-13-12.61 5.82-12.61 13 5.08 13 12.61 13m-25.22-13.07h-6.79v-8.24h6.79c3.91 0 5.47 1.13 5.47 4.12s-1.56 4.12-5.47 4.12m.49-12.38h-11.08a.55.55 0 0 0-.53.54v23.8a.55.55 0 0 0 .53.53h3.27a.55.55 0 0 0 .53-.53v-7.84h7.28c5.08 0 9.31-2.45 9.31-8.24s-4.23-8.26-9.31-8.26m-27.641 21.33c-2.27 0-4.37-1-4.37-3.37s1.78-3.59 5.65-3.59h6c0 4.26-3.06 7-7.25 7m1.67-21.88a11.5 11.5 0 0 0-8.92 4 .55.55 0 0 0 0 .74l2.22 2.25a.44.44 0 0 0 .74 0 8 8 0 0 1 6-2.91c3.9 0 5.54 2.06 5.54 5.4v1.49h-6.61c-5.15 0-9.34 2.66-9.34 7.64s4.19 7.35 8.17 7.35c3.52 0 6.39-1.42 7.78-4.19v3.09a.55.55 0 0 0 .53.53h3.27a.55.55 0 0 0 .53-.53v-15.6c0-6.46-3.55-9.3-9.91-9.3m-13.52 11.44h-12a.5.5 0 0 0-.53.468.492.492 0 0 0 0 .062v3a.51.51 0 0 0 .478.54.488.488 0 0 0 .052 0h8.07a7.9 7.9 0 0 1-8.17 6.32c-4.87 0-8.1-3.87-8.1-8.88s3.23-8.88 8.1-8.88a8.31 8.31 0 0 1 6.64 2.84.45.45 0 0 0 .75 0l2.11-2.36a.51.51 0 0 0 .03-.72.542.542 0 0 0-.03-.03 12.73 12.73 0 0 0-9.41-3.83c-7.64 0-12.51 5.82-12.51 13s4.91 13 12.44 13c7.35 0 12.61-5.54 12.61-13v-1a.5.5 0 0 0-.468-.53.533.533 0 0 0-.062 0m-36.881-11.44c-4.51 0-7 2.09-8.28 4.29v-3.19a.55.55 0 0 0-.53-.54h-3.27a.55.55 0 0 0-.53.54v23.8a.55.55 0 0 0 .53.53h3.27a.55.55 0 0 0 .53-.53v-12.58c0-4.61 2.6-8.2 7.14-8.2 4 0 5.72 2.59 5.72 6.85v13.93a.55.55 0 0 0 .53.53h3.27a.55.55 0 0 0 .54-.53v-14.28c0-6.89-3.24-10.59-8.92-10.62m-21.3 1.1v23.8a.55.55 0 0 0 .53.53h3.27a.55.55 0 0 0 .53-.53v-23.8a.55.55 0 0 0-.53-.54h-3.27a.55.55 0 0 0-.53.54m-21.121 16.69l-2.27 2.46a.51.51 0 0 0-.02.72l.02.02a12.92 12.92 0 0 0 10.41 5c5.58 0 9.42-2.91 9.42-7.28 0-3.55-1.89-5.76-6-6.93L86.882 30c-2.95-.85-4.16-1.85-4.16-3.41 0-1.92 2-3.2 5-3.2a7.54 7.54 0 0 1 5.72 2.81.46.46 0 0 0 .74 0l2.21-2.34a.5.5 0 0 0 .044-.706.528.528 0 0 0-.044-.044 11.18 11.18 0 0 0-8.67-3.62c-5 0-9.17 2.7-9.17 7.21 0 2.95 2.06 5.65 6.33 6.85l4.26 1.21c3.12.89 3.94 2.06 3.94 3.48 0 2.1-2.06 3.13-4.83 3.13a8.93 8.93 0 0 1-7.6-4 .44.44 0 0 0-.75 0M144.333 58.411v6h-2.6v-5.41a1.8 1.8 0 0 0-1.79-2 1.88 1.88 0 0 0-1.997 1.756l-.003.075v5.68h-2.69v-9.51h2.69v1.19a3.41 3.41 0 0 1 2.87-1.41 3.47 3.47 0 0 1 3.523 3.415q.002.107-.003.214zm-10.85 1.27a5.19 5.19 0 1 1-5.376-4.996q.108-.004.216-.004a5.14 5.14 0 0 1 5.16 5zm-2.56 0a2.62 2.62 0 1 0-5.24-.004v.004a2.62 2.62 0 0 0 5.24.005zm27.6-.69l-3.9-7.14h-2.71v12.63h2.7v-7.87l3.9 7.14 3.91-7.12v7.87h2.72v-12.63h-2.72zm41.002 1.7h-6.82a2.29 2.29 0 0 0 2.3 1.72 3.45 3.45 0 0 0 2.19-.84l1.71 1.75a5.81 5.81 0 0 1-3.9 1.46 4.89 4.89 0 0 1-5-4.777q-.003-.111 0-.223a4.79 4.79 0 0 1 4.636-4.939q.132-.004.264 0c2.92 0 4.66 2.26 4.65 5.85zm-2.52-1.94a2 2 0 0 0-2-1.54 2.27 2.27 0 0 0-2.21 1.54zm-20.9.09v5.68h-2.59v-1a3.75 3.75 0 0 1-2.8 1.17c-2 0-3.58-1.22-3.58-3s1.75-3.16 4-3.15a7 7 0 0 1 2.43.48v-.18c0-1-.63-1.9-2.19-1.9a5.48 5.48 0 0 0-2.46.67l-.9-1.78a8.71 8.71 0 0 1 4-1 3.86 3.86 0 0 1 4.067 3.641q.01.185.003.37zm-2.6 1.8a6 6 0 0 0-2-.35 1.56 1.56 0 0 0-1.75 1.33c0 .78.68 1.26 1.6 1.26a2.07 2.07 0 0 0 2.19-1.36zm12-9h2.69v12.86h-2.68v-1.32a3.92 3.92 0 0 1-3.2 1.58c-2.54 0-4.38-2.07-4.37-5s1.85-5 4.39-5a3.87 3.87 0 0 1 3.19 1.59zm0 8.09a2.48 2.48 0 0 0-2.294-2.653q-.103-.008-.206-.007a2.73 2.73 0 1 0 2.43 2.71zm-65.502-9.03a1.46 1.46 0 1 0 1.43 1.49v-.05a1.46 1.46 0 0 0-1.43-1.44zm-22.08 8v5.68h-2.6v-1a3.75 3.75 0 0 1-2.8 1.17c-2 0-3.58-1.22-3.58-3s1.76-3.16 4-3.15a6.91 6.91 0 0 1 2.43.48v-.18c0-1-.62-1.9-2.19-1.9a5.48 5.48 0 0 0-2.46.67l-.9-1.78a8.75 8.75 0 0 1 4-1 3.86 3.86 0 0 1 4.1 4zm-2.59 1.8a6.059 6.059 0 0 0-2-.35c-1 0-1.75.56-1.75 1.33s.67 1.26 1.59 1.26a2.07 2.07 0 0 0 2.19-1.36zm8.82-2c-1.28-.35-1.67-.5-1.67-1 0-.33.46-.57 1.13-.57a5.38 5.38 0 0 1 2.66.85l1.09-1.91a6.91 6.91 0 0 0-3.75-1.18c-2.24 0-3.73 1.28-3.72 3.08s1.52 2.41 3.47 2.89c1 .26 1.67.45 1.67 1 0 .42-.51.71-1.23.71a5.37 5.37 0 0 1-3.18-1.07l-1.16 1.85a7.08 7.08 0 0 0 4.28 1.45c2.33 0 3.86-1.19 3.87-3.07 0-2.06-1.82-2.62-3.46-3.05zm9.23 0c-1.28-.35-1.67-.5-1.67-1 0-.33.46-.57 1.13-.57a5.42 5.42 0 0 1 2.66.85l1.09-1.91a6.91 6.91 0 0 0-3.75-1.18c-2.24 0-3.73 1.28-3.72 3.08s1.52 2.41 3.47 2.89c1 .26 1.67.45 1.67 1s-.52.72-1.23.72a5.44 5.44 0 0 1-3.18-1.07l-1.16 1.85a7 7 0 0 0 4.31 1.46c2.33 0 3.86-1.18 3.87-3.06-.03-2.08-1.87-2.63-3.49-3.06zm5.23 5.91h2.69v-9.51h-2.69zm-30.72-8.41c0 2.5-2 4.26-4.77 4.26h-3v4.1h-2.7v-12.63h5.68c2.769-.01 4.789 1.76 4.789 4.27zm-2.8 0c0-1.08-.91-1.78-2.25-1.78h-2.69v3.57h2.69c1.329-.02 2.249-.72 2.249-1.79zm149.183 2.75c-1.29-.35-1.67-.5-1.67-1 0-.33.46-.57 1.12-.57a5.45 5.45 0 0 1 2.67.85l1.08-1.91a6.85 6.85 0 0 0-3.74-1.18c-2.25 0-3.74 1.28-3.72 3.08s1.52 2.41 3.46 2.89c1 .26 1.68.45 1.68 1 0 .42-.52.71-1.24.71a5.39 5.39 0 0 1-3.18-1.07l-1.16 1.85a7 7 0 0 0 4.28 1.44c2.34 0 3.87-1.18 3.87-3.06 0-2.07-1.82-2.62-3.45-3.05zm29.73 1.18c0 2.92-1.85 5-4.39 5a3.9 3.9 0 0 1-3.18-1.56v1.34h-2.68v-12.85h2.69v4.64a3.86 3.86 0 0 1 3.19-1.5c2.54 0 4.37 2 4.37 4.93zm-2.61 0a2.52 2.52 0 0 0-2.322-2.703 2.503 2.503 0 0 0-.218-.007 2.43 2.43 0 0 0-2.41 2.33v.73a2.42 2.42 0 0 0 2.4 2.36 2.53 2.53 0 0 0 2.557-2.503c0-.069-.002-.138-.007-.207zm-12.66 4.73h2.68v-9.51h-2.68zm1.38-13.66a1.45 1.45 0 1 0 1.45 1.45 1.45 1.45 0 0 0-1.45-1.45zm15.77 13.7h2.69v-12.85h-2.68zm11.7-3l1.71 1.75a5.79 5.79 0 0 1-3.89 1.46 4.87 4.87 0 0 1-5-4.736q-.003-.132 0-.264a4.78 4.78 0 0 1 4.627-4.929q.137-.004.274 0c3 0 4.72 2.27 4.71 5.85h-6.86a2.31 2.31 0 0 0 2.26 1.73 3.44 3.44 0 0 0 2.17-.84zm-4.41-2.82h4.25a2 2 0 0 0-2-1.55 2.29 2.29 0 0 0-2.25 1.57zm-29.67-.15c-1.29-.35-1.67-.5-1.67-1 0-.33.46-.57 1.12-.57a5.28 5.28 0 0 1 2.66.85l1.09-1.91a6.85 6.85 0 0 0-3.7-1.17c-2.25 0-3.74 1.28-3.73 3.08s1.53 2.41 3.47 2.89c1 .26 1.68.44 1.68 1 0 .43-.52.72-1.24.72a5.46 5.46 0 0 1-3.18-1.04l-1.16 1.85a7 7 0 0 0 4.28 1.44c2.34 0 3.87-1.18 3.87-3.06.01-2.08-1.86-2.63-3.49-3.06zm-15 1.11a5.19 5.19 0 1 1-5.377-4.996q.108-.004.217-.004a5.14 5.14 0 0 1 5.14 5.02zm-2.56 0a2.62 2.62 0 1 0-2.62 2.71 2.69 2.69 0 0 0 2.6-2.69zm-8.94-3.6c0 2.5-2 4.26-4.77 4.25h-3v4.1h-2.7v-12.63h5.69c2.779.04 4.779 1.78 4.779 4.28zm-2.8 0c0-1.08-.91-1.78-2.25-1.79h-2.69v3.55h2.74c1.31 0 2.23-.68 2.23-1.77z" fill="#fff"/></svg>